/* XPM */
static char * exit_xpm[] = {
"64 64 448 2",
"  	c #D872AF",
". 	c #D16FA8",
"+ 	c #C6699C",
"@ 	c #CB6CA1",
"# 	c #D570AB",
"$ 	c #DA73B1",
"% 	c #D772AE",
"& 	c #D36FA9",
"* 	c #CF6DA5",
"= 	c #CC6CA2",
"- 	c #CE6DA4",
"; 	c #D671AD",
"> 	c #CD6DA3",
", 	c #C76A9D",
"' 	c #C96A9F",
") 	c #CB6CA2",
"! 	c #D06EA7",
"~ 	c #CD6DA4",
"{ 	c #CB6BA1",
"] 	c #D470AB",
"^ 	c #D571AC",
"/ 	c #C86A9E",
"( 	c #D06EA6",
"_ 	c #D972B0",
": 	c #CA6BA1",
"< 	c #CA6BA0",
"[ 	c #CC6CA3",
"} 	c #CF6EA6",
"| 	c #D16EA7",
"1 	c #C6699D",
"2 	c #D771AE",
"3 	c #D973B0",
"4 	c #D26FA9",
"5 	c #C7699D",
"6 	c #D370AA",
"7 	c #D570AC",
"8 	c #CD6CA3",
"9 	c #D771AD",
"0 	c #D470AA",
"a 	c #D972AF",
"b 	c #D671AC",
"c 	c #CE6DA5",
"d 	c #D26FA8",
"e 	c #D471AA",
"f 	c #CD70A2",
"g 	c #CE72A1",
"h 	c #D16FA7",
"i 	c #D872AE",
"j 	c #DA74B1",
"k 	c #DB77B0",
"l 	c #DF7FAF",
"m 	c #E182AF",
"n 	c #DA75B0",
"o 	c #CF6EA5",
"p 	c #C96B9F",
"q 	c #DB74B1",
"r 	c #DC78B1",
"s 	c #DF80AF",
"t 	c #E083AE",
"u 	c #DA74B0",
"v 	c #DA78AE",
"w 	c #E689B7",
"x 	c #E990B7",
"y 	c #DC82AD",
"z 	c #C86C9E",
"A 	c #D471AB",
"B 	c #CE73A0",
"C 	c #DE84AB",
"D 	c #E88FB5",
"E 	c #EA90B9",
"F 	c #E386B4",
"G 	c #D373A9",
"H 	c #D370A9",
"I 	c #D774AC",
"J 	c #DD7BB0",
"K 	c #E07FB3",
"L 	c #E07EB4",
"M 	c #DC79B2",
"N 	c #DB78AF",
"O 	c #DE7CB0",
"P 	c #DC78B0",
"Q 	c #D270A9",
"R 	c #CA6E9E",
"S 	c #DA77AE",
"T 	c #DE7CAF",
"U 	c #CE70A3",
"V 	c #DB75B1",
"W 	c #C96BA0",
"X 	c #CE6EA5",
"Y 	c #CE6FA2",
"Z 	c #D575A9",
"` 	c #D472A9",
" .	c #C96D9D",
"..	c #D379A2",
"+.	c #DC80AA",
"@.	c #DB75B2",
"#.	c #DC77B2",
"$.	c #D874AF",
"%.	c #C97CAF",
"&.	c #CFAFCE",
"*.	c #CDACCD",
"=.	c #CDABCC",
"-.	c #D0B0CF",
";.	c #CBA8CA",
">.	c #C376A6",
",.	c #D36FAA",
"'.	c #D076A1",
").	c #DD81AB",
"!.	c #C86B9D",
"~.	c #D278A2",
"{.	c #D980A5",
"].	c #D171A4",
"^.	c #DF7DB3",
"/.	c #E587B6",
"(.	c #DE80B1",
"_.	c #C287B6",
":.	c #DAC1D9",
"<.	c #D9C0D9",
"[.	c #D9BFD8",
"}.	c #D7BCD6",
"|.	c #D175A2",
"1.	c #DD7AB0",
"2.	c #C76A9C",
"3.	c #C76B9D",
"4.	c #D679A9",
"5.	c #E085B1",
"6.	c #C588B8",
"7.	c #DBC3DB",
"8.	c #DBC2DA",
"9.	c #D3B5D2",
"0.	c #DAC2DA",
"a.	c #D2B4D2",
"b.	c #D672AD",
"c.	c #CC6EA2",
"d.	c #CB6FA0",
"e.	c #CB6EA0",
"f.	c #CB76AA",
"g.	c #CF7CB2",
"h.	c #C499C1",
"i.	c #C49CC3",
"j.	c #BF94BE",
"k.	c #DCC4DB",
"l.	c #C9A5C8",
"m.	c #D1B1D0",
"n.	c #D1B2D0",
"o.	c #D5B8D4",
"p.	c #B989B8",
"q.	c #C095BF",
"r.	c #C39AC2",
"s.	c #C87FB1",
"t.	c #C273A5",
"u.	c #C86A9F",
"v.	c #C781B3",
"w.	c #BE8CB8",
"x.	c #D3B4D1",
"y.	c #D6BBD6",
"z.	c #D7BBD6",
"A.	c #C69EC5",
"B.	c #CCAACC",
"C.	c #C7A2C6",
"D.	c #D6BAD5",
"E.	c #CAA6C9",
"F.	c #D2B3D1",
"G.	c #BC87B7",
"H.	c #BC88B7",
"I.	c #C681B1",
"J.	c #C581B0",
"K.	c #D4B7D4",
"L.	c #CCA9CB",
"M.	c #CEACCD",
"N.	c #C298C1",
"O.	c #DBC3DA",
"P.	c #DCC5DC",
"Q.	c #D5B9D5",
"R.	c #BB86B4",
"S.	c #D975B1",
"T.	c #D37CB4",
"U.	c #DEC7DD",
"V.	c #D4B7D3",
"W.	c #BA8BB9",
"X.	c #BD8FBB",
"Y.	c #D677B2",
"Z.	c #D875B2",
"`.	c #C86A9D",
" +	c #D071A4",
".+	c #DC79AF",
"++	c #D974B1",
"@+	c #D0A6CA",
"#+	c #C6A0C5",
"$+	c #D2B4D1",
"%+	c #D0AFCF",
"&+	c #C781B5",
"*+	c #CC6DA1",
"=+	c #D377A4",
"-+	c #CF91BA",
";+	c #C7A0C6",
">+	c #D8BED8",
",+	c #CAA5C9",
"'+	c #C56EA3",
")+	c #CE6FA4",
"!+	c #D772AD",
"~+	c #BF93BE",
"{+	c #C8A3C7",
"]+	c #CBA7CA",
"^+	c #D1B2D1",
"/+	c #DDC6DC",
"(+	c #BB8DBA",
"_+	c #B875AB",
":+	c #D47AA7",
"<+	c #E387B3",
"[+	c #DE7BB3",
"}+	c #CA8DB9",
"|+	c #CEADCD",
"1+	c #D7BDD7",
"2+	c #C196C0",
"3+	c #BE92BD",
"4+	c #BE91BD",
"5+	c #CFAECE",
"6+	c #D8BDD7",
"7+	c #C670A6",
"8+	c #DC77B1",
"9+	c #C386B5",
"0+	c #C299C1",
"a+	c #C59EC4",
"b+	c #AF78AD",
"c+	c #C59DC4",
"d+	c #B786B6",
"e+	c #C49DC3",
"f+	c #B989B7",
"g+	c #D170A8",
"h+	c #D577A9",
"i+	c #DF81B2",
"j+	c #DC7AB0",
"k+	c #CF70A8",
"l+	c #C197C0",
"m+	c #B888B7",
"n+	c #BD91BC",
"o+	c #C9A4C8",
"p+	c #C7A1C6",
"q+	c #B77FB2",
"r+	c #CF71A4",
"s+	c #DB7AAF",
"t+	c #D976AE",
"u+	c #BB8CBA",
"v+	c #B482B3",
"w+	c #CD75B0",
"x+	c #C873AD",
"y+	c #B17CB0",
"z+	c #C393BD",
"A+	c #C374A5",
"B+	c #BE93BD",
"C+	c #B98AB8",
"D+	c #D4B6D3",
"E+	c #C39BC2",
"F+	c #CE7EB5",
"G+	c #C56EA0",
"H+	c #BD90BC",
"I+	c #C094BE",
"J+	c #B37FB2",
"K+	c #C69FC5",
"L+	c #BD8DBB",
"M+	c #C66FA1",
"N+	c #AD75AB",
"O+	c #C8A2C7",
"P+	c #DA80AB",
"Q+	c #CC71A7",
"R+	c #BD8EBA",
"S+	c #D171A7",
"T+	c #D275AE",
"U+	c #BD8EBB",
"V+	c #D776B2",
"W+	c #BC8CBA",
"X+	c #D274AD",
"Y+	c #B37FB1",
"Z+	c #C46C9F",
"`+	c #B885B6",
" @	c #C46B9E",
".@	c #AF77AD",
"+@	c #CE70A9",
"@@	c #AF76AC",
"#@	c #D472AF",
"$@	c #C59BC2",
"%@	c #B27DB1",
"&@	c #BC8EBB",
"*@	c #B475AC",
"=@	c #CE72AD",
"-@	c #C671A8",
";@	c #B175AC",
">@	c #B480B2",
",@	c #C974AF",
"'@	c #CE74AF",
")@	c #CE71A1",
"!@	c #D77CA8",
"~@	c #B975AC",
"{@	c #D779A8",
"]@	c #E187AD",
"^@	c #CA81B0",
"/@	c #B07BAF",
"(@	c #B684B5",
"_@	c #CE70A7",
":@	c #DE7DAF",
"<@	c #DC79B0",
"[@	c #CF78AC",
"}@	c #C07CB1",
"|@	c #CD6FA6",
"1@	c #B887B6",
"2@	c #B175AB",
"3@	c #D672AE",
"4@	c #BE84B4",
"5@	c #B583B4",
"6@	c #CD74AF",
"7@	c #BC86B4",
"8@	c #BC8FBB",
"9@	c #CA73AF",
"0@	c #CF6FA6",
"a@	c #B880B2",
"b@	c #B685B5",
"c@	c #C871A8",
"d@	c #C286B7",
"e@	c #BF6FA4",
"f@	c #D875AC",
"g@	c #DB7AAD",
"h@	c #D676A9",
"i@	c #B678AD",
"j@	c #DC7FAF",
"k@	c #CA6DA0",
"l@	c #D776AC",
"m@	c #D678A7",
"n@	c #CD729F",
"o@	c #C872A6",
"p@	c #C57EAD",
"q@	c #DEC8DE",
"r@	c #D487B0",
"s@	c #E88FB6",
"t@	c #D87EAA",
"u@	c #CC6EA1",
"v@	c #D87AAC",
"w@	c #E288B1",
"x@	c #E087AD",
"y@	c #B676AA",
"z@	c #B87BB0",
"A@	c #C374AC",
"B@	c #DF7FB0",
"C@	c #E187AF",
"D@	c #D97FAA",
"E@	c #DF7BB3",
"F@	c #E082B2",
"G@	c #D67AA9",
"H@	c #C76FA6",
"I@	c #BF7CAF",
"J@	c #B582B3",
"K@	c #BA8CB9",
"L@	c #B27DB0",
"M@	c #C46DA2",
"N@	c #C96BA1",
"O@	c #CC6FA1",
"P@	c #D473A9",
"Q@	c #C46A9E",
"R@	c #B871A6",
"S@	c #BA72A9",
"T@	c #B27EB1",
"U@	c #BC79AE",
"V@	c #C073AD",
"W@	c #BC72AA",
"X@	c #CA6CA0",
"Y@	c #D472AB",
"Z@	c #C66A9C",
"`@	c #CE73A2",
" #	c #DC82AE",
".#	c #E487B6",
"+#	c #D571AD",
"@#	c #B473A8",
"##	c #CC6DA4",
"$#	c #E07FB4",
"%#	c #D476A8",
"&#	c #DA73B0",
"*#	c #E384B6",
"=#	c #EC93BA",
"-#	c #E188B1",
";#	c #CF73A2",
">#	c #E087B0",
",#	c #EB91B9",
"'#	c #E386B5",
")#	c #C287B7",
"!#	c #D673AD",
"~#	c #CE71A3",
"{#	c #CD6EA3",
"]#	c #DE7AB3",
"^#	c #D676AC",
"/#	c #D878AC",
"(#	c #E486B5",
"_#	c #D973AF",
":#	c #DA7AAC",
"<#	c #D87DA5",
"[#	c #D072A3",
"}#	c #CA6E9F",
"|#	c #DD83AE",
"1#	c #D677AA",
"2#	c #D672AC",
"3#	c #D87AAB",
"4#	c #DC81AF",
"5#	c #CF70A4",
"6#	c #D070A6",
"7#	c #D274A7",
"8#	c #DB76B0",
"9#	c #D873AD",
"0#	c #DC7FAE",
"a#	c #E48BB3",
"b#	c #E287B3",
"c#	c #CC6DA2",
"d#	c #CD72A2",
"e#	c #D277A5",
"f#	c #CF6FA4",
"g#	c #E587B7",
"h#	c #E98DB8",
"i#	c #D373A7",
"j#	c #DC76B2",
"k#	c #E180B5",
"l#	c #E689B6",
"m#	c #E284B3",
"n#	c #D170A7",
"o#	c #CC71A1",
"p#	c #D175A5",
"q#	c #DF7EB0",
"r#	c #E285B0",
"s#	c #DD79B1",
"t#	c #DD7BB1",
"u#	c #E68AB6",
"v#	c #E68DB5",
"w#	c #D97EAB",
"x#	c #D574AB",
"y#	c #D97DAC",
"z#	c #E486B6",
"A#	c #E17FB4",
"B#	c #E487B5",
"C#	c #DD79B2",
"D#	c #D477A8",
"E#	c #DB82AC",
"F#	c #D77DA9",
"G#	c #DD7DAF",
"H#	c #E183AE",
"I#	c #D77DA4",
"J#	c #D67BA5",
"K#	c #D675AA",
"L#	c #DD7EAD",
"M#	c #D87EA6",
"N#	c #CB6E9F",
"O#	c #CB6DA0",
"  . + + + @ # $ $ $ $ $ % & * = - # ; > , ' ) @ = ! ! ~ , + { ] $ $ $ $ $ ^ @ + + / ( $ $ $ $ $ _ ^ ! > : & ; . < , < [ < } | * ",
"^ ] ) 1 ' ( 2 $ $ 3 % ^ 3 $   # ^ _ 4 5 ' @ / + ' | 3 6 / + { ] $ 3 2 4 7 ; } ' , = ] $ $ $   ; % $ 3 ; 6 _ ^ = , < : + + 8 9 ; ",
". 3 ^ 8 ! % $ $ 3 % . ( 0 ; a $ $ 3 ] [ | ] ( = - 6 3 ^ ~ = } b 3 ; c + > % % ! c 0 $ $ $   ] ! d ^ % $ $ $ % ! c & e f g h i % ",
"& $ $ 3 %   3 $ 2 ! > . / = ]   % a $ $ $ $ $ $ $ _   $ $ $ $ 3 ; c + , * i $ 3   %   $ 3 6 - } [ / ( _ %   3 $ $ j k l m n   3 ",
"$ $ $ ] ' @ # % } + + + + = h ~ ' ( $ $ $ $ 3 3 % d o $ $ $ $ ; c + , - _ $ $ ; c / ( $ ] p + + + ' o 4 5 = ; $ q r s t u ] } ^ ",
"$ $ $ ] ' @ # % } + + + = . [ 5 + / ( $ $ ^ > / / ' o $ $ $ ; - 5 + , - _ $ $ ; c / ( $ ] p + + p o h , + 5 [ v w x y z / , = ^ ",
"$ $ $ _ 9 % ; ( / + + = b A = + + / o $ $ ^ ) + + + / : ( i ; > + + , - _ $ $ 3   9 % ] < 5 + p . ; . + + B C D E F G + + + , p ",
"$ $ $ $ $ $ ; - / 8 ] ; 3   ^ 0 0 ] ; $ $   H @ + + + + 8 2 _ ; 4 > , - _ $ $ $ $ $ 3 6 , < | ^   3 % 0 0 I J K L M ; c + + + + ",
"$ $ $ $ $ $   6 [ { ( 6 N O P $ $ $ $ $ $ $ ; ~ + + + + 8 2 $ $ 3 b d # 3 $ $ $ $ $ $ % c : ~ d ; $ $ $ $ $ $ $ $ $ _ Q 5 + + R ",
"3 ; 4 # _ $ $ % } + + - S T P $ $ $ $ $ $ $ ; ~ , < ) < d   $ $ $ $ $ $ $   0 6 2 $ $ $ ] p + < 6 $ $ $ $ $ $ $ $ $ _ Q 5 ' @ U ",
"^ - + U S V $   4 < p . a $ $ 3 2 # 9 $ $   6 @ ' ( ^ d _ $ _ ; ] # 2 $   . W < & $ $ $ ; 8 p - ^ $ $ $   7 b   $ 3 ; X + Y Z ` ",
"- +  ...+.N $ $   0 | 3 $ @.#.$.} , - % $ ^ ) + ' %.&.*.=.=.-.-.-.-.-.-.&.;.>.p h   $ $ $ ; d b $ $ $ $ ] ' { ,._   h + + '.).J ",
"+ !.~.{.].; 3 _ _ 3 $ $ $ ^./.(.} + , c   ^ [ , < _.:.<.:.:.:.[.[.[.:.:.:.}.=.+ p . 3 _ _ 3 $ $ $ 3 _ 3 6 ' + @ 0   . , , |.).1.",
"+ + 2.3.> d > , < | $ $ ^ 4.5.(.} / * _ $ $ 3 _ 3 6.7.:.:.:.:.8.8.9.8.0.:.:.a.+ p ( 4 , , > ; $ % ! ' o 6 ' @ ] $ $ 3 _ _ 3 j b.",
"+ + + = b ^ [ + / ( $ $ A c.d.e.< - . < f.g.h.i.i.j.k.:.:.:.8.l.m.n.8.8.:.8.o.p.q.r.s.t.+ = ; $ % } + / u.= ! - 8 6 $ $ $ ^ > p ",
"> 5 = b 3 _ ; ] 6 h 8 . % 4 < + ' o v.w.x.y.y.y.z.A.k.:.:.8.8.B.;.C.8.8.:.8.D.E.F.y.D.y.G.H.c } ] ^ - + + = . = , ) 6 $ ^ [ , + ",
"b 4 ^ ; ! d 2   6 @ + -     ] ! I.J.K.<.<.L.=.M.*.N.0.8.8.O.8.k.P.P.8.8.8.8.Q.=.=.=.L.F.[.<.R.< 6 3 ; d c < @ ' + ' ! 3 6 u.+ ' ",
"$ $ 2 c / @ # % } 5 < & _ S.T.q.<.U.F.V.W.[.[.[.8.C.O.8.8.8.:.8.7.8.7.O.8.8.D.:.:.:.:.9.q.[.N.X.X.Y.Z.$ ] ' + / = | ] ; - , + { ",
"$ 3 6 , + @ # % } `. +.+++@+D.:.<.#+M.=.$+[.[.[.[.}.9.8.8.7.7.7.7.7.7.O.8.k.M.[.[.:.:.:.:.K.E.%+9.=.&.&+] ' / - b $ 3 ^ ~ @ p - ",
"$ % ! 5 , - b   . *+=+-+;+8.:.o.*.[.[.[.Q.<.:.<.[.[.E.k.k.0.8.O.O.7.7.k.P.U.l.>+>+[.:.:.:.:.:.,+%+D.y.Q.N.'+8 6 2   $ $ $ ^ d ; ",
"% ! + 3.)+!+$ $ $   Q L.O.8.}.$+}.[.[.[.<.<.:.:.:.~+X.B.=.{+]+]+L.L.=.^+9.9.M./+0.>+<.<.<.Q.<.:.z.(+[.<.<._+. = < d $ $ 3 3 $ $ ",
"! + 2.:+<+[+$ $   }+|+1+-.%+=.[.[.[.[.<.<.:.O.o.;+2+p.;+{+~+3+4+j.q.q.C.B.5+A.a.>+0.8.6+y.D.6+[.<.[.,+%+m.6+L.7+< d $ $ ] } 9 $ ",
"/ , > $.8+q $   9+O.>+>+}.5+>+[.[.[.:.<.7.D.0+a+A.A.b+b+b+a+i.a+c+a+A.j.d+d+e+F.F.F.|+U.[.6+6+1+1+1+>+f+>+<.[.%+g+_ 3 6 ' > 4 d ",
"/ 8 . [ h+i+j+k+K.}.6+n.F.<.[.:.:.:.:.:.e+l+N.m+X.n+E.E.]+*.M.M.|+&.m.F.=.r.q.l+o+;+5+M.V.<.1+}.z.}.}.D.p+[.[.<.q+$ $   7 ; ] > ",
"4 ! ) 1 r+s+t+m+}.D.D.]+:.:.:.8.:.8.0.~+q.u+v+a+B.=.=.=.*.*.M.&.n.^+n.F.^+l.C.D.9.^+2+L.E.D.O.[.1+y.y.1+[.2+}.}.1+w+$ $ $ $ ^ = ",
"] = + + = ; x+D.D.D.r.[.<.:.0.7./+/+N.X.y+A.]+B.=.M.|+|+5+5+%+m.n.^+F.F.E.$+$+-.-.m.^+]+(+E.^+7.:.}.[.<.<.-.Q.6+1+z+b $ $ $ % h ",
"} + + A+*.L.E.o+o+{+C.C.{+^+y.1+:.B+(+C+;+=.B.B.=.n.n.^+F.$+9.9.D+V.V.a+y.D+D+D+F.m.-.a.V.E+;+0.$+$+m.B.=.L.E.E.]+]+]+E.=.F+$ ; ",
". ' G+6+7.8.>+>+1+}.K.K.1+}.[.E.l+H+u+e+|+|+B.=.a.B+B+B+j.I+l+r.r.r.r.E+E+E+r.r.-.m.-.a.a.V.J+K+/+7.7.>+[.[.[.[.<.<.<.[.7.L+3 ] ",
"$.! M+6+>+>+>+>+6+6+1+1+1+1+}.<.y.N+;+|+|+M.*.|+q.i.]+]+L.L.L.=.=.=.=.=.=.*.&.O+;+V.m.m.a.a.n.l+/+<.>+>+[.[.[.<.<.<.<.<.k.L+^ ~ ",
"P+, Q+[.[.[.[.D.D.>+6+>+6+6+1+P.3+N.E.5+E.]+&.%+2+=.%+-.-.-.n.m.n.^+n.n.n.9.V.n.{+#+-.F.a.a.9.X.^+[.>+>+[.<.[.[.}.[.<.<.k.R+9 $ ",
"S++ M+[.<.<.a.:.:.5+[.[.[.>+6+P.p.N.M.5+%+m.e+%+e+*.m.m.m.n.n.n.F.$+$+$+$+$+F.n.{+l.m.m.m.n.n.=.E.[.>+>+:.:.<.a.:.:.m.<.P.R+9 $ ",
"% ^ T+[.<.<.m.[.z.E.<.[.[.[.k./+d+N.m.%+5+-.y.N.A.|+^+^+F.^+F.$+$+$+$+$+$+$+$+F.o+E.m.m.m.m.m.n.O+[.[.[.:.:.:.F.:.^+;.O.P.U+3 $ ",
"# $ V+<.:.:.8.q.q.7.:.:.:.<.:./+d+l+n.n.n.n.9.5+K+5+F.9.V.o.9.$+9.9.9.D+a.$+$+$+l.m.^+m.m.m.m.^+O+<.<.:.:.:.:.-.3+K.k.8.P.L+$ $ ",
"8 ^ V+<.8.:.0.k.k.0.:.:.:.:.:./+d+N.^+n.F.F.$+9.O+%+9.9.D.Q.V.9.9.9.K.V.9.a.$+$+E.$+F.n.m.m.m.n.O+<.<.:.:.:.8.7.k.7.7.7.P.L+$ $ ",
"} 0 V+<.k.8.8.8.8.8.0.:.:.:.:./+d+l+F.^+a.a.$+a.{+m.9.D+V.K.V.V.V.o.o.K.9.D+Q.o.]+9.$+n.-.-.*.*.O+<.<.<.:.0.7.7.7.7.8.O.P.W+] ,.",
"$   X+:.k.k.8.8.8.8.8.8.:.:.a+#+Y+l+a.$+Q.Q.o.a.E.m.9.D+K.K.K.o.o.o.o.Q.Q.Q.Q.o.L.9.9.m.-.|+*.q.q.p+9.O.O.7.7.7.7.y.V.8./+W+< + ",
"  . Z+D.P.P.O.0.0.0.<.=.L.&.7.0.D+j.Q.D.Q.D.o.9.]+^+9.V.K.K.K.o.o.o.o.D.D.Q.Q.K.L.9.9.a.^+5+=.r.:.<.9.]+c+r.O+:.:.0.0.:.8.`+= / ",
"  .  @{+M.o+o+l.o+o+I+^+<.<.[.6+6+D.B.D.D.D.9.9.;.o.D+V.K.K.o.o.Q.D.D.Q.D.Q.Q.>+L.9.9.9.9.9.q.o.D.D.D.D.:.r.o+p+C.{+{+{+L..@9 ; ",
"4   +@O+C.j.^+5+*.o+p+;+k.[.[.[.[.[.y.B.D.D.o.9.]+E.n.n.m.n.n.n.^+n.n.-.-.%+-.]+L.9.9.9.9.A.%+D.}.D.D.D.y.n+*.&.m.m.-.p+;.@@9 ; ",
". $ #@$@c+%@:.}.D.D+-.&@P.<.<.<.<.<.<.0.&.o.y.K.1+-.=.*.M.|+|+5+5+5+5+=.=.M.*.*.V.9.9.^+2+L.8.<.[.>+>+}.=.I+y.>+:.:.Q.E+C.*@3 3 ",
"2 $ $ =@-@;@$+>+}.D.K.l.0+[.<.<.<.:.:.7.y.&.D.y.K.o.Q.D.D.D.y.y.y.y.D.Q.B.V.D.D.o.9.K+$+Q.>+[.<.<.[.:.E.>@9.z.[.[.k.N.,@'@; 6 2 ",
"$ $ $ ] )@!@C+[.>+}.}.K.2+A.8.8.8.:.:.:.<.<.p+L.%+o.V.V.o.o.o.o.o.o.o.o.1+o.K.M.*.#+}.:.[.<.:.:.:.:.=.&@L.a.z.:.0.o+~@! ! ~ - ^ ",
"P $ $ ; {@]@^@l.<.6+}.z.0+i.B.E.K.:.8.:.0.<.[.1+o.i.A.K.K.K.Q.Q.o.o.o.K.K.D+]+K.6+0.0.0.0.:.:.:.8.C.I+/@E.a.<.:.7.(@_@+ + + p } ",
":@$ $ $ <@l [@~+F.[.%+a.n.W.c+M.,+U.0.:.0.<.<.[.[.}.&.*.&.&.-.-.M.M.*.*.L.l.%+6+:.0.0.0.0.0.8.>+5+l+3+L.L.;.%+[.B+}@6 W + + + + ",
"$ $ $ $ $ $ % |@r.l.P.[.[.k.[.o+5+5+/+8.0.:.<.<.[.[.%+O.O.7.7.<.<.<.[.[.[.7.L.<.<.0.0.0.8.P.7.0+l+1@-.D+D+D+k.n+2@$ _ Q 5 + + + ",
"$ $ 3 $ $ $ $ 3@4@r.$+:.<.[.}.-.;.5+=.o.7./+:.<.<.-.<.:.:.0.:.<.<.<.<.[.[.:.n.<.<.0.P./+^+E.r.X.;.D.y.D.o.o.q.5@6@$ _ Q 5 + + + ",
"  4 / *   $ $ % } 7@;.9.:.[.[.:.:.E+#+{+L.]+8.O.8.]+k.:.:.:.0.[.:.[.<.<.<.[.D.:.8.O.]+i.E+2+3+5+V.D.D.}.D.B+8@9@$ $ _ Q 5 = h } ",
". u.+ > i $ $ 3 ; 0@a@L.&.[.:.0.0.k.m.K.b@E.o+O+B.r.P.:.0.7.7.:.-.1+<.:.<.[.y.p+o+A.e+q.C+{+[.a.D.D.y.A.l+u+c@; $   4 ' + 8 b   ",
"W + + ' ! % $ $ 3 % ; d@0+L.}.8.P.o.z.[.[.A.E+B+B+~+P.k.7.7.7.o.}.D.8.8.8.:.}.f+3+I+c+5+:.8.a.D.[.F.,+I+m+e@/ - b   h + + 8 9 $ ",
"+ + + + = f@g@h@| # $ $ 3@r.]+]+K+/+[.[.>+6+V.V.K.#+/+k.k.P.O.;.U.D.8.O.O.0.y.E.9.[.y.6+:.:.:.P.c+N.l+i@j@k@p ! 2 3 ; . . ]     ",
"+ + + p . l@m@n@/ ( $ $ A o@p@&@a+$+V.D.k.k.6+D+V.c+q@k.k.k.k.P.7.k.7.8.8.0.1+o+a.6+8.k.k.&.=.f+N.d+r@s@t@u@- . 6 9 $ $ $   6 } ",
"p + ' |   % ! [ ~ ! ] ; ^ v@w@x@y@B.C.{+C.;+<.:.:.#+U.U.U.k.k.7.8.8.O.7.P./+V.]+Q.:.E.r.l+q.8@z@A@B@C@D@3.= . = ' o % $   . ' + ",
". { !   % i 3 3 ; } + -   E@F@G@< H@I@C+p+#+#+a+r.J@-.L.]+]+]+]+E.,+O+o+,+M.e+K@l+i.r.r.N.L@M@N@6   Q < u.= ( @ 3.O@P@3 6 u.+ 5 ",
"$ $ 3 6 ' @ # % } + 5 -   $ $ % } + + Q@R@S@3+3+&@T@M.]+E.{+{+O+{+O+O+C.C.p+i.(@K@8@U@V@W@X@, { 6 $ q V Y@p + Z@`@ #.#3 6 / + { ",
"$ 3 6 / + @ # % } , -   $ $ $ % } + 5 > 2 3 +#~ 5 @#=.,+r.i.A.A.#+;+C.;+;+c+E+##5 / ( $ $#5.%#0 &##.*#=#-#d.+ ;#>#,#'#6 / + + { ",
"$ 3 6 , + @ # % } , * 3 $ $ $ % } , ~ % $ $ 3   ] -@n+m+m+m+W.W.W.W.W.W.p.p.)#[ + / ( $ !#~#{## $ j #.]#^#p < /#(#/.#._#:#<#[#6 ",
"_ 0 < + < &   3 2 0 . d a % ! = { 8 . 8 h   $ $ 3 % 9 $ $ $ ; > }#:+|#1#u ; c / / * 2 $   7 4 d ^ _ 2#3#4#5#( 6#7#l@$ $ 8#v 9#  ",
"6 @ + < &   $ $ _ ^ ! # ; } ' + ' o 4 5 8 9 $   ^ # $ $ $ $   I 0#a#b## ; c / / * ; $ $ $ % 4 & ^ 6 c#d#e#f#. = < d $ $ ; 0   $ ",
") 5 < & _ $ $ _ ] - * 3 A < + / = ( ~ < d     & - ( % # 3 $ $ ]#g#h#$#% o / / * ; $ $ $ % ( - # % } + + p o c ) - b 3 ; c - ] b ",
"5 < ( 0 ; _ _ ] [ , * 3 A < , 8 6 0 > i#N V % . * 4 Q = # 3 j#k#l#m#; 6 / / > d 7 % $   ! / @ # % n#o#p#d ^ } ( b $ 3 ^ ~ h 6 o ",
"= } ! 5 = ; ; - + , * 3 ^ ~ - # $ $ j q#r#s#$ $ $   4 + 8 ; t#u#v#w#* A ) - ! ) p . 3 6 , + @ #   x#y#z#8+k q $ $ $ j j $ $ ^ = ",
"% ! + + = ; ; - + / ( _ _ _ $ $ $ j V A#B#C#$ $ $ _ Q , 8 . D#E#F#' ! $ $ ] : + p . 3 6 , + = # 3 _ 3 j G#H#<@$ 3 _ 3 $ $ $ ^ [ ",
"! 5 + + = ; ; - / ( 3 ] W = ^ $ k l H#Y@X@> ^ $ $ $ 3 H / 5 B I#J#| &#$ ] < + + p . 3 6 , = b ; c p | $ j j $ ; c W | $ $ $ $ ^ ",
"} + + + = 4 - , / ( $ 6 u.5 [ K#L#M#N#u.+ = ^ $ $ $ 3 6 / + 3. .O#h $ $ ] p + + p ( Q / + = ; ; - + ' ! ] = < ' , ' ! $ $ $ $ ; "};
