/* XPM */
static char * sol_xpm[] = {
"64 64 297 2",
"  	c #D872AF",
". 	c #D16FA8",
"+ 	c #C6699C",
"@ 	c #CB6CA1",
"# 	c #D570AB",
"$ 	c #DA73B1",
"% 	c #D772AE",
"& 	c #D36FA9",
"* 	c #CF6DA5",
"= 	c #CC6CA2",
"- 	c #CE6DA4",
"; 	c #D671AD",
"> 	c #CD6DA3",
", 	c #C76A9D",
"' 	c #C96A9F",
") 	c #CB6CA2",
"! 	c #D06EA7",
"~ 	c #CD6DA4",
"{ 	c #CB6BA1",
"] 	c #D470AB",
"^ 	c #D571AC",
"/ 	c #C86A9E",
"( 	c #D06EA6",
"_ 	c #D972B0",
": 	c #CA6BA1",
"< 	c #CA6BA0",
"[ 	c #CC6CA3",
"} 	c #CF6EA6",
"| 	c #D16EA7",
"1 	c #C6699D",
"2 	c #D771AE",
"3 	c #D973B0",
"4 	c #D26FA9",
"5 	c #C7699D",
"6 	c #D370AA",
"7 	c #D570AC",
"8 	c #CD6CA3",
"9 	c #D771AD",
"0 	c #D470AA",
"a 	c #D972AF",
"b 	c #D671AC",
"c 	c #CE6DA5",
"d 	c #D26FA8",
"e 	c #D471AA",
"f 	c #CD70A2",
"g 	c #CE72A1",
"h 	c #D16FA7",
"i 	c #D872AE",
"j 	c #DA74B1",
"k 	c #DB77B0",
"l 	c #DF7FAF",
"m 	c #E182AF",
"n 	c #DA75B0",
"o 	c #CF6EA5",
"p 	c #C96B9F",
"q 	c #DB74B1",
"r 	c #DC78B1",
"s 	c #DF80AF",
"t 	c #E083AE",
"u 	c #DA74B0",
"v 	c #DA78AE",
"w 	c #E689B7",
"x 	c #E990B7",
"y 	c #DC82AD",
"z 	c #C86C9E",
"A 	c #D471AB",
"B 	c #CE73A0",
"C 	c #DE84AB",
"D 	c #E88FB5",
"E 	c #EA90B9",
"F 	c #E386B4",
"G 	c #D373A9",
"H 	c #D370A9",
"I 	c #D774AC",
"J 	c #DD7BB0",
"K 	c #E07FB3",
"L 	c #E07EB4",
"M 	c #DC79B2",
"N 	c #DB78AF",
"O 	c #DE7CB0",
"P 	c #DC78B0",
"Q 	c #D270A9",
"R 	c #CA6E9E",
"S 	c #DA77AE",
"T 	c #DE7CAF",
"U 	c #CE70A3",
"V 	c #DB75B1",
"W 	c #C96BA0",
"X 	c #CE6EA5",
"Y 	c #CE6FA2",
"Z 	c #D575A9",
"` 	c #D472A9",
" .	c #C96D9D",
"..	c #D379A2",
"+.	c #DC80AA",
"@.	c #DB75B2",
"#.	c #DC77B2",
"$.	c #D874AF",
"%.	c #D36FAA",
"&.	c #D076A1",
"*.	c #DD81AB",
"=.	c #C86B9D",
"-.	c #D278A2",
";.	c #D980A5",
">.	c #D171A4",
",.	c #DF7DB3",
"'.	c #E587B6",
").	c #DE80B1",
"!.	c #D175A2",
"~.	c #DD7AB0",
"{.	c #C76A9C",
"].	c #C76B9D",
"^.	c #D679A9",
"/.	c #E085B1",
"(.	c #D672AD",
"_.	c #CC6EA2",
":.	c #CB6FA0",
"<.	c #CB6EA0",
"[.	c #C86A9F",
"}.	c #C86A9D",
"|.	c #D071A4",
"1.	c #DC79AF",
"2.	c #CC6DA1",
"3.	c #D377A4",
"4.	c #DD80AB",
"5.	c #DB76B0",
"6.	c #CE6FA4",
"7.	c #D772AD",
"8.	c #D47AA7",
"9.	c #E387B3",
"0.	c #DE7BB3",
"a.	c #DA73B0",
"b.	c #DC77B1",
"c.	c #D577A9",
"d.	c #DF81B2",
"e.	c #DC7AB0",
"f.	c #CF71A4",
"g.	c #DB7AAF",
"h.	c #D976AE",
"i.	c #C76A9E",
"j.	c #D06FA7",
"k.	c #DA80AB",
"l.	c #D171A7",
"m.	c #CE71A1",
"n.	c #D77CA8",
"o.	c #DF81B0",
"p.	c #DB7AB0",
"q.	c #D779A8",
"r.	c #E187AD",
"s.	c #E386B1",
"t.	c #D879AC",
"u.	c #DE7DAF",
"v.	c #DC79B0",
"w.	c #D978AC",
"x.	c #CD6EA3",
"y.	c #CF73A4",
"z.	c #D377A6",
"A.	c #D676AA",
"B.	c #DD79B3",
"C.	c #E485B6",
"D.	c #EA8FB9",
"E.	c #E486B6",
"F.	c #E280B5",
"G.	c #E688B6",
"H.	c #DC78B2",
"I.	c #DB76B2",
"J.	c #E281B5",
"K.	c #E288B3",
"L.	c #CF72A4",
"M.	c #E186AE",
"N.	c #E689B4",
"O.	c #E88BB8",
"P.	c #E78BB7",
"Q.	c #D97AAD",
"R.	c #CA6C9F",
"S.	c #D875AC",
"T.	c #DB7AAD",
"U.	c #D676A9",
"V.	c #E083AC",
"W.	c #E388AD",
"X.	c #E285AF",
"Y.	c #E385B3",
"Z.	c #E78DB5",
"`.	c #EB93B7",
" +	c #DC7FAF",
".+	c #CA6DA0",
"++	c #D776AC",
"@+	c #D678A7",
"#+	c #CD729F",
"$+	c #D579A7",
"%+	c #D97CAA",
"&+	c #D274A5",
"*+	c #CD72A1",
"=+	c #DB83AA",
"-+	c #E389AC",
";+	c #E182AE",
">+	c #E184B0",
",+	c #E991B3",
"'+	c #E88FB6",
")+	c #D87EAA",
"!+	c #CC6EA1",
"~+	c #D87AAC",
"{+	c #E288B1",
"]+	c #E087AD",
"^+	c #D377A3",
"/+	c #D572AC",
"(+	c #D87AAB",
"_+	c #E589B4",
":+	c #E082AF",
"<+	c #D876AC",
"[+	c #D975AE",
"}+	c #DF7FB0",
"|+	c #E187AF",
"1+	c #D97FAA",
"2+	c #DF7BB3",
"3+	c #E082B2",
"4+	c #D67AA9",
"5+	c #CC6FA1",
"6+	c #D473A9",
"7+	c #CA6CA0",
"8+	c #D472AB",
"9+	c #C66A9C",
"0+	c #CE73A2",
"a+	c #DC82AE",
"b+	c #E487B6",
"c+	c #E07FB4",
"d+	c #D476A8",
"e+	c #E384B6",
"f+	c #EC93BA",
"g+	c #E188B1",
"h+	c #CF73A2",
"i+	c #E087B0",
"j+	c #EB91B9",
"k+	c #E386B5",
"l+	c #C96D9F",
"m+	c #D57AA8",
"n+	c #E286B4",
"o+	c #D673AD",
"p+	c #CE71A3",
"q+	c #DE7AB3",
"r+	c #D676AC",
"s+	c #D878AC",
"t+	c #E486B5",
"u+	c #D973AF",
"v+	c #DA7AAC",
"w+	c #D87DA5",
"x+	c #D072A3",
"y+	c #CA6E9F",
"z+	c #DD83AE",
"A+	c #D677AA",
"B+	c #D672AC",
"C+	c #DC81AF",
"D+	c #CF70A4",
"E+	c #D070A6",
"F+	c #D274A7",
"G+	c #D873AD",
"H+	c #DC7FAE",
"I+	c #E48BB3",
"J+	c #E287B3",
"K+	c #CC6DA2",
"L+	c #CD72A2",
"M+	c #D277A5",
"N+	c #CF6FA4",
"O+	c #E587B7",
"P+	c #E98DB8",
"Q+	c #D373A7",
"R+	c #DC76B2",
"S+	c #E180B5",
"T+	c #E689B6",
"U+	c #E284B3",
"V+	c #D170A7",
"W+	c #CC71A1",
"X+	c #D175A5",
"Y+	c #DF7EB0",
"Z+	c #E285B0",
"`+	c #DD79B1",
" @	c #DD7BB1",
".@	c #E68AB6",
"+@	c #E68DB5",
"@@	c #D97EAB",
"#@	c #D574AB",
"$@	c #D97DAC",
"%@	c #E17FB4",
"&@	c #E487B5",
"*@	c #DD79B2",
"=@	c #D477A8",
"-@	c #DB82AC",
";@	c #D77DA9",
">@	c #DD7DAF",
",@	c #E183AE",
"'@	c #D77DA4",
")@	c #D67BA5",
"!@	c #D675AA",
"~@	c #DD7EAD",
"{@	c #D87EA6",
"]@	c #CB6E9F",
"^@	c #CB6DA0",
"  . + + + @ # $ $ $ $ $ % & * = - # ; > , ' ) @ = ! ! ~ , + { ] $ $ $ $ $ ^ @ + + / ( $ $ $ $ $ _ ^ ! > : & ; . < , < [ < } | * ",
"^ ] ) 1 ' ( 2 $ $ 3 % ^ 3 $   # ^ _ 4 5 ' @ / + ' | 3 6 / + { ] $ 3 2 4 7 ; } ' , = ] $ $ $   ; % $ 3 ; 6 _ ^ = , < : + + 8 9 ; ",
". 3 ^ 8 ! % $ $ 3 % . ( 0 ; a $ $ 3 ] [ | ] ( = - 6 3 ^ ~ = } b 3 ; c + > % % ! c 0 $ $ $   ] ! d ^ % $ $ $ % ! c & e f g h i % ",
"& $ $ 3 %   3 $ 2 ! > . / = ]   % a $ $ $ $ $ $ $ _   $ $ $ $ 3 ; c + , * i $ 3   %   $ 3 6 - } [ / ( _ %   3 $ $ j k l m n   3 ",
"$ $ $ ] ' @ # % } + + + + = h ~ ' ( $ $ $ $ 3 3 % d o $ $ $ $ ; c + , - _ $ $ ; c / ( $ ] p + + + ' o 4 5 = ; $ q r s t u ] } ^ ",
"$ $ $ ] ' @ # % } + + + = . [ 5 + / ( $ $ ^ > / / ' o $ $ $ ; - 5 + , - _ $ $ ; c / ( $ ] p + + p o h , + 5 [ v w x y z / , = ^ ",
"$ $ $ _ 9 % ; ( / + + = b A = + + / o $ $ ^ ) + + + / : ( i ; > + + , - _ $ $ 3   9 % ] < 5 + p . ; . + + B C D E F G + + + , p ",
"$ $ $ $ $ $ ; - / 8 ] ; 3   ^ 0 0 ] ; $ $   H @ + + + + 8 2 _ ; 4 > , - _ $ $ $ $ $ 3 6 , < | ^   3 % 0 0 I J K L M ; c + + + + ",
"$ $ $ $ $ $   6 [ { ( 6 N O P $ $ $ $ $ $ $ ; ~ + + + + 8 2 $ $ 3 b d # 3 $ $ $ $ $ $ % c : ~ d ; $ $ $ $ $ $ $ $ $ _ Q 5 + + R ",
"3 ; 4 # _ $ $ % } + + - S T P $ $ $ $ $ $ $ ; ~ , < ) < d   $ $ $ $ $ $ $   0 6 2 $ $ $ ] p + < 6 $ $ $ $ $ $ $ $ $ _ Q 5 ' @ U ",
"^ - + U S V $   4 < p . a $ $ 3 2 # 9 $ $   6 @ ' ( ^ d _ $ _ ; ] # 2 $   . W < & $ $ $ ; 8 p - ^ $ $ $   7 b   $ 3 ; X + Y Z ` ",
"- +  ...+.N $ $   0 | 3 $ @.#.$.} , - % $ ^ ) + ' | $ $ $ $ ; > + / } _ 4 ' + p h   $ $ $ ; d b $ $ $ $ ] ' { %._   h + + &.*.J ",
"+ =.-.;.>.; 3 _ _ 3 $ $ $ ,.'.).} + , c   ^ [ , < . $ $ 3 $ ; - , p } 6 / + + + p . 3 _ _ 3 $ $ $ 3 _ 3 6 ' + @ 0   . , , !.*.~.",
"+ + {.].> d > , < | $ $ ^ ^./.).} / * _ $ $ 3 _ 3 3 3 ] } % $ 3 _ _ a 6 / + + + p ( 4 , , > ; $ % ! ' o 6 ' @ ] $ $ 3 _ _ 3 j (.",
"+ + + = b ^ [ + / ( $ $ A _.:.<.< - . < o % $ $   4 < [.> 2 $ $ $ $ 3 6 / + + p . 9 . + + = ; $ % } + / [.= ! - 8 6 $ $ $ ^ > p ",
"> 5 = b 3 _ ; ] 6 h 8 . % 4 < + ' o 4 5 / o 9   . p + + 8 2 $ $ $ $ $   ! / < .   3 % ] ] 4 c } ] ^ - + + = . = , ) 6 $ ^ [ , + ",
"b 4 ^ ; ! d 2   6 @ + -     ] ! [ < ) + + = ^ % o + + { 0 _ $   6 * } 6 2 6 0 b 6 ! ] $ ; c / < 6 3 ; d c < @ ' + ' ! 3 6 [.+ ' ",
"$ $ 2 c / @ # % } 5 < & _ $ $ % } + + < c 4 b 4 @ + 5 -   $   4 { + , - _ $   4 : / ( $ ] p / o ; $ $ $ ] ' + / = | ] ; - , + { ",
"$ 3 6 , + @ # % } }.|.1.j $ $ % } 5 W d _ $ % . = < < d _ $ ; > + + , - _ $ ; [ + / ( $ ] p @ # $ $ $ $ ] ' / - b $ 3 ^ ~ @ p - ",
"$ % ! 5 , - b   . 2.3.4.5.3 % 0 - p ( ; % 3 $ $   0 d $ $ $ ; > + + , - _ 3 6 ) 5 < d $ ^ 8 ~ 0 _ $   ; . W 8 6 2   $ $ $ ^ d ; ",
"% ! + ].6.7.$ $ $   Q o i ] ) + ' o 4 5 8 9 $ $ 3 3 $ $ $ $ ; - / / ' o   ] : + < d $ $ $ $ ^ h 6 % ! + + = . = < d $ $ 3 3 $ $ ",
"! + {.8.9.0.$ $   Q * _ A { + + ' o 4 5 8 9 $ % d h $ $ $ $ $ $ 3 3 3 a.] < + < 4 $ $ $ $ ^ ( ] % ( + + + = . = < d $ $ ] } 9 $ ",
"/ , > $.b.q $   h p * 3 A < + p * ! ' 8 ; 3 % o < } ] ( _ $ $ $ $ $ 3 ] < 5 < & _ $ $ $ ^ @ = # % } + + = . ) { d _ 3 6 ' > 4 d ",
"/ 8 . [ c.d.e.! ' , * 3 A < p | % % 7 9 3 $ 3 ; ^ ; 4 [.!   % | = ~ d 6 / < ( o - 0 3 ^ @ 5 @ # % } , = ;   ; ;   $ $   7 ; ] > ",
"4 ! ) 1 f.g.h.- + , * 3   ] ] % $ $ $ $ $ $ $ $ $   4 + 8 ] } ' + / o % %.. ~ ' p . 3 6 , + @ # 3 ; & ^ $ $ $ $ $ $ $ $ $ $ ^ = ",
"] = + + = ; ; - , = ] 2 4 6 i $ $ $ $ % 4 6   $ $ 3 ^ [ { [ ' + , [ # $ % } ' + p . 3 6 , p ! ^ ] 4 ^ $ $ $ $   ] 4 b $ $ $ % h ",
"} + + + = ] 6 @ / ( $ 6 [.< . 9 ; 6 %.o i.= ^ $ $ $ 3 6 / + + + p h $ $ ] p + + p | ; c 5 = ; ; - / > ; % ] 6 | @ ' ! $ $ $ $ ; ",
". ' + / - ( @ + / (   h / + { ! } + / { { o ; $ $ $   j.i.+ + 5 @ 6 $ $ ^ = , 5 { } o + + = ^ ] = + , - 6 ' , < { 8 & $ $ $ 3 ] ",
"$.! , * Q : + + W ( 6 / + 5 = . } / o $ $ $ $ $ 3   6 [./ + + < 4 3 _ $ 3 0 @ @ h ( + + 5 - 4 ~ 5 + / ( 6 ' = # $ $ $ $ 3 _ ^ ~ ",
"k., - _ A : + p d $ 3 6 [.= # % } / o $ $ $ $ % . | $ $ ] W + < ( 4 ( $ ] W @ ] % ( + + > % $ ; - / ( 3 6 ' = # $ $ $ $ 6 o 9 $ ",
"l.+ , * Q : < d _ 3 6 ' + = 7 $ a ; d W ' - 4 c < | $ $ 3 6 : 5 , W ( $ ] p 5 = . ( , > % $ ; - , / ( $ 3   ] ~ ' @ | 6 [.8 9 $ ",
"% ^ ^ 2   ; ;   $ _ Q 5 + = 7 $ $ _ 4 5 + = ] 2 ; i $ $ $ ^ ) + + / ( $   ; ^ ; % % ^ % $ $ ^ [ + / ( $ $ $ ^ = + ' (   ^ 9 3 $ ",
"# $ $ $ % | - - } 0 % %.& # b ] ^ 3 % %.& #   $ $ $ $ $ ; c / + / 8 h - 4   $ $   ] - - - d ; 7 & 0 b ; & _   7 & 0 ; $ $ $ $ $ ",
"8 ^ $ $ A : + + / ( $ $ $   . = ~ ^ $ $ $ $ $ $ $ $ $ $ % } ' / - 0 . + < d   $ % ( + + + = ; $ $ 3 ^ > < 4   $ $ $ $ $ $ $ $ $ ",
"} 0 $   ! ' / @ } 0 $ $ $ ^ = + ' | $   0 7   $ 3 ; %.%.%.d } ! ^ 3 ^ - - . % _ ] [ + p ~ d i $ $   . + + = ; _ ^ 0 ; $ $   ] %.",
"$   ^ ! / , > 7 $ $ $ $ _ Q : + ' | 3 6 / = ]   ; ! + + + < & a $ $ $ $ $ _ ; 4 [ 5 W . 3 $ $ $ 3 ; c + + = ; ; ~ ' (   % ] < + ",
"  . + + + @ # $ $ $ $ $ ^ [ / i.< d   4 / @ ( } o ! ' / + + { ] $ $ $ $ $ ^ @ + + / ( $ $ $ $ $ % h ' / , - ; ^ [ / - . > . = / ",
"  . + + + ) # $ $ $ $ $ $ $ ; h d _ 4 5 + + + + ' | 3 6 / + { ] $ $ $ $ $ ^ @ + + / ( $ $ $ $ $ $ $ _ 6 c   ^ = + + + + + 8 9 ; ",
"4   . , = 7 3 $ $ 3 ] (   $ $ 3 3 _ 4 5 = ! @ + ' | 3 6 / + { ] $   Q [.* % ] = ' ! _ $ $ $ ; . 0 $ $ 3 _ $ ^ = p * } + + 8 9 ; ",
". $   ; 2 3 $ $   ] } d [ o ; $ $ $   b 2   2 ^ ;   $   ; ^ 9 _   4 ' + > % 3 2 ;   $ $ $ ; . h } 8 & $ $ $ 3 2 ; i   ^ ^ 2 3 3 ",
"2 $ $ ; } | 9   4 : p @ 5 = 4 4 } ] $ $ $ $ $ $   ^ 6 $ $ $ $   d < 5 @ # 3 $   4 * 0 $ ; ~ < < p / } ^ c . i $ $ $ $ $ $ ; 6 2 ",
"$ $ $ ] m.n.o.p.} + + + p o c < , = ] $ $ % & ! * > o $ $ $   d < + , - _ $ $ ; c / ( $ ] p + + / = ( [ 1 p | % $ 3 ^ ! ! ~ - ^ ",
"P $ $ ; q.r.s.t.= + + p . 6 = + + / o $ $ ^ ) + + , = 4 7 _ ; > + + , - _ $ $   6 ( 0 % } / + / ~ 6 . + + + = # $   h + + + p } ",
"u.$ $ $ v.l w.- 5 ' = h   % ( x.y.z.A.$ $ ; c / + + + + 8 2 % ! @ ' , - _ $ $ $ $ $ 3 6 , / { * ^ _ 6 = = = ( ; $   6 W + + + + ",
"$ $ $ $ $ $ % } < * %   $ $ $ B.C.D.E.j $ $ ; ~ + + + + 8 2 $ $   . < ( _ $ $ $ $ $ 3 ] p = 0   _ $ $ $ $ $ $ $ $ $ _ Q 5 + + + ",
"$ $ 3 $ $ $ $ % } + + -   $ $ $ $ $ $ $ $ $ ; ~ + + + + > % $ $ $ $ $ $ $ $ $ $ $ $ $ $ ] p + < 6 $ $ $ j $ $ $ $ $ _ Q 5 + + + ",
"  4 / *   $ $ % } + + -   $ $ $ $ $ $ $ $ $ ; ~ ' c . > % $ $ $ $ $ $ $ $ ^ [ = 0 $ $ $ ] p + < 6 $ @.F.G.H.$ $ $ $ _ Q 5 = h } ",
". [.+ > i $ $ 3 ; ( > 2 $ $ $   . = . $ $ ; - / ' !   i $ $ % ( { = d $ ^ = , < & $ $ $ _ 4 - 4 a $ I.J.K.L.* ; $   4 ' + 8 b   ",
"W + + ' ! % $ $ 3 % ; $ $ $ $ % } 5 < d _ ^ ) + ' | $ $ $ $ ; > + / o ^ = , + , 8 ] $ $ $ v *.M.N.O.P.'.Q.R./ - b   h + + 8 9 $ ",
"+ + + + = S.T.U.| # $ $ % d d 6 } 5 @ ] 3   6 . 4 ; $ ; ]     ] . 4 ] 6 / + + + p ! ^ ( Z V.W.X.Y.Z.`.E  +.+p ! 2 3 ; . . ]     ",
"+ + + p . ++@+#+/ ( $ $ A f.$+%+&+{ ! 4 # _ $ $ 3 ; . - - 2 $ $ $ $ 3 6 / + + / ~ 6 Q *+=+-+;+P P >+,+'+)+!+- . 6 9 $ $ $   6 } ",
"p + ' |   % ! [ ~ ! ] ; ^ ~+{+]+^+o 4 5 { 0 a 3 ^ ~ + + 8 2 $ $ $ $ 3 ^ ) , / > 7 _ /+(+_+:+<+b [+}+|+1+].= . = ' o % $   . ' + ",
". { !   % i 3 3 ; } + -   2+3+4+< ~ ! + + = ^ % o + + , * % $ 3   2 2   ^ [ - #   %   $ 3 H < < 6   Q < [.= ( @ ].5+6+3 6 [.+ 5 ",
"$ $ 3 6 ' @ # % } + 5 -   $ $ % } + + + 5 8 ^ ; c + 5 -   $ $ ; c + , - _ $ $ ; - / ( $ A 7+, { 6 $ q V 8+p + 9+0+a+b+3 6 / + { ",
"$ 3 6 / + @ # % } , -   $ $ $ % } + 5 > 2 3 ; - 5 + 5 -   $ ; ~ 5 + , - _ $ ; ~ 5 / ( $ c+/.d+0 a.#.e+f+g+:.+ h+i+j+k+6 / + + { ",
"$ 3 6 , + @ # % } , * 3 $ $ $ % } , ~ % $ $ 3   ] ( - i $ $ ; > + l+m+n+V $ ; [ + / ( $ o+p+x.# $ j #.q+r+p < s+t+'.#.u+v+w+x+6 ",
"_ 0 < + < &   3 2 0 . d a % ! = { 8 . 8 h   $ $ 3 % 9 $ $ $ ; > y+8.z+A+u ; c / / * 2 $   7 4 d ^ _ B+(+C+D+( E+F+++$ $ 5.v G+  ",
"6 @ + < &   $ $ _ ^ ! # ; } ' + ' o 4 5 8 9 $   ^ # $ $ $ $   I H+I+J+# ; c / / * ; $ $ $ % 4 & ^ 6 K+L+M+N+. = < d $ $ ; 0   $ ",
") 5 < & _ $ $ _ ] - * 3 A < + / = ( ~ < d     & - ( % # 3 $ $ q+O+P+c+% o / / * ; $ $ $ % ( - # % } + + p o c ) - b 3 ; c - ] b ",
"5 < ( 0 ; _ _ ] [ , * 3 A < , 8 6 0 > Q+N V % . * 4 Q = # 3 R+S+T+U+; 6 / / > d 7 % $   ! / @ # % V+W+X+d ^ } ( b $ 3 ^ ~ h 6 o ",
"= } ! 5 = ; ; - + , * 3 ^ ~ - # $ $ j Y+Z+`+$ $ $   4 + 8 ;  @.@+@@@* A ) - ! ) p . 3 6 , + @ #   #@$@E.b.k q $ $ $ $ $ $ $ ^ = ",
"% ! + + = ; ; - + / ( _ _ _ $ $ $ j V %@&@*@$ $ $ _ Q , 8 . =@-@;@' ! $ $ ] : + p . 3 6 , + = # 3 _ 3 j >@,@v.$ 3 _ 3 $ $ $ ^ [ ",
"! 5 + + = ; ; - / ( 3 ] W = ^ $ k l ,@8+7+> ^ $ $ $ 3 H / 5 B '@)@| a.$ ] < + + p . 3 6 , = b ; c p | $ j j $ ; c W | $ $ $ $ ^ ",
"} + + + = 4 - , / ( $ 6 [.5 [ !@~@{@]@[.+ = ^ $ $ $ 3 6 / + ]. .^@h $ $ ] p + + p ( Q / + = ; ; - + ' ! ] = < ' , ' ! $ $ $ $ ; "};
